<svg width="32" height="32" viewBox="0 0 32 32" fill="none" xmlns="http://www.w3.org/2000/svg">
<circle cx="16" cy="16" r="16" fill="white" fill-opacity="0.25"/>
<path fill-rule="evenodd" clip-rule="evenodd" d="M12.1564 12.4145L12.1428 12.4053L12.1622 12.3922L12.1759 12.4014L12.1564 12.4145ZM12.2011 14.0757L12.2127 12.5815L16.2381 9.85988L18.1694 11.1087L20.5096 12.6074L20.5194 14.03L21.7952 13.214L21.7826 11.5889L18.7257 9.63114L16.2031 8L10.945 11.555L10.9299 13.214L12.2011 14.0757Z" fill="white"/>
<path fill-rule="evenodd" clip-rule="evenodd" d="M12.1563 19.5244L12.1427 19.5153L12.1621 19.5021L12.1758 19.5113L12.1563 19.5244ZM10.91 18.6988L10.9313 20.3239L16.1969 23.8678L21.7874 20.3239L21.7937 18.6988L20.5182 17.8841L20.5133 19.2948L16.2334 22.0079L12.2022 19.2948L12.1947 17.9452L10.91 18.6988Z" fill="white"/>
</svg>
